<?xml version="1.0" encoding="utf-8"?>
<!-- Generator: Adobe Illustrator 16.0.0, SVG Export Plug-In . SVG Version: 6.00 Build 0)  -->
<!DOCTYPE svg PUBLIC "-//W3C//DTD SVG 1.1//EN" "http://www.w3.org/Graphics/SVG/1.1/DTD/svg11.dtd">
<svg version="1.1" id="Logo" xmlns="http://www.w3.org/2000/svg" xmlns:xlink="http://www.w3.org/1999/xlink" x="0px" y="0px"
	 width="792px" height="400px" viewBox="0 0 792 400" enable-background="new 0 0 792 400" xml:space="preserve">
<path fill-rule="evenodd" clip-rule="evenodd" fill="#FFFFFF" d="M297.152,301.623c4.453-7.773,9.468-9.831,16.657-2.911
	c1.621,1.563,5.271,1.942,6.941-0.838c1.199-1.999,0.115-4.353-1.839-5.677c-5.913-3.994-4.613-10.81-6.717-16.303
	c-2.171-5.67-6.533-9.887-11.045-2.875c-4.823,7.485-7.874,16.165-11.176,24.534c-1.007,2.55-1.346,6.271,3.41,7.15
	C294.574,303.761,296.371,302.979,297.152,301.623z"/>
<path fill-rule="evenodd" clip-rule="evenodd" fill="#FFFFFF" d="M125.498,308.036c-8.507-4.595-17.86-4.733-27.143-5.53
	c-8.024-0.686-12.834,2.803-13.619,10.618c-1.264,12.578-4.288,24.874-3.077,37.854c1.356,14.522,3.964,18.25,18.93,18.622
	c5.861,0.147,11.622-0.729,16.81-3.837c15.473-5.43,20.31-15.778,13.221-29.26c-1.559-2.965,0.648-4.357,0.973-6.494
	C136.99,320.522,134.9,313.114,125.498,308.036z M107.246,357.032c-1.262,0.091-2.613,0.341-3.586,1.091
	c-9.979-2.482-10.401-3.368-8.43-13.518c1.185-6.098,1.787-12.256,2.637-18.385c0.621-4.508-0.602-10.78,5.869-11.716
	c6.243-0.896,12.72-0.239,16.866,5.835c-1.454,1.785-2.8,2.056-4.126,2.37c-5.537,1.31-9.79,3.98-9.189,10.44
	c0.57,6.1,5.463,7.283,10.397,8.131c1.695,0.293,3.384,0.633,5.116,0.604c0.052-0.009,0.101-0.018,0.148-0.028
	C121.682,350.741,117.098,356.338,107.246,357.032z"/>
<path fill-rule="evenodd" clip-rule="evenodd" fill="#FFFFFF" d="M643.072,307.041c-8.611,8.578-0.579,19.058-3.229,28.32
	c-1.428,2.536-3.335,4.932-4.177,7.656c-1.425,4.585-2.129,10.525-7.938,10.299c-6.562-0.249-7.204-7.197-8.453-11.959
	c-2.28-8.685-2.429-17.648-0.969-26.653c0.878-5.416-1.593-9.865-7.246-10.354c-6.378-0.551-7.588,4.449-7.594,9.603
	c-0.013,8.371-0.748,16.845,0.329,25.086c3.085,23.669,17.025,33.359,35.152,24.772c8.474-4.011,10.7-13.246,15.091-20.601
	c3.97-10.023,5.76-20.052,0.086-30.112C651.96,308.303,646.625,304.309,643.072,307.041z"/>
<path fill-rule="evenodd" clip-rule="evenodd" fill="#FFFFFF" d="M318.605,360.838c-14.626-8.623-15.035-30.374-1.123-41.113
	c3.09,0.52,7.172-0.319,5.935-4.057c-0.82-2.479-0.666-3.875-3.859-4.751c-3.958-1.542-9.474-2.166-15.995-2.271
	c-4.521-1.791-18.437-1.906-18.75,1.5c-0.146,1.542,1.087,8.119,6.23,7.495c11.993-1.455,11.207,8.922,9.57,13.205
	c-3.061,7.954-3.298,15.941-0.265,23.958c0,0.004,0.002,0.004,0.002,0.004c1.712,5.317-6.399,4.074-10.368,3.806
	c-3.776-0.258-8.118-0.984-8.704,4.143c-0.65,5.688,4.379,6.919,8.334,7.129c8.564,0.446,17.205-0.424,25.765,0.079
	c3.703,0.216,8.942,1.741,10.13-1.2C327.392,364.094,322.161,362.936,318.605,360.838z"/>
<path fill-rule="evenodd" clip-rule="evenodd" fill="#FFFFFF" d="M453.417,304.494c-10.331-4.475-20.646-2.348-30.955-0.294
	c-0.686,0.125-1.374,0.262-2.065,0.403c-5.783,4.821-8.883,10.163-3.352,17.188c-4.955,9.897-2.892,28.912-2.982,30.803
	c-3.641,4.393-0.308,10.44,2.247,14.61c1.164,1.89,5.053-1,6.984-3.243c5.394-4.817,1.648-11.47,3.418-17.014
	c4.818-1.265,9.544-0.805,14.218,0.754c2.451,8.449,5.55,16.563,11.985,22.937c2.332,3.536,5.476,3.886,8.061,0.907
	c2.008-2.315,1.694-5.203-1.882-6.544c-5.868-8.885-13.741-17.457-3.506-28.419C466.668,324.728,466.166,311.75,453.417,304.494z
	 M448.332,318.731c-2.324,7.277-8.307,13.095-16.268,14.951c-3.908,0.911-3.939-2.526-4.347-3.902
	c-2.742-16.259,5.384-15.123,11.899-16.024C443.778,313.183,449.683,314.521,448.332,318.731z"/>
<path fill-rule="evenodd" clip-rule="evenodd" fill="#FFFFFF" d="M198.361,182.865c-8.111-5.115-24.842-13.678-34.896-7.222
	c-0.203,0.104-0.403,0.229-0.591,0.382c-7.458,6.975-9.291-1.691-11.915-4.281c-6.251-8.519-7.701-9.59-12.26-2.638
	c0,0-1.783,2.644-2.109,16.831c-0.263,11.441-7.007,14.396-14.007,11.563c-4.667-1.417-1.106-18.428-1.106-18.428
	c0.637-5.273,2.668-10.99-3.889-11.467c-5.046-0.366-5.816,2.582-6.891,6.768c-4.18,16.29-4.692,16.334-16.297,5.846
	c-9.483-9.802-8.872-31.79-9.585-44.647c-0.444-8.044,1.938-16.312,9.436-21.604c3.251,4.418,6.594,8.773,9.724,13.274
	c2.246,3.231,4.556,6.736,9.018,4.743c3.637-1.627,3.938-5.031,2.793-8.813c-0.975-3.216-0.469-6.486,0.917-9.518
	c5.657,1.396,6.634,5.24,7.735,9.369c0.855,3.194,1.887,7.334,6.318,7.032c4.52-0.309,7.104-3.252,8.279-7.864
	c0.842-3.312,0.124-7.309,2.879-10.301c4.991,4.012,6.336,9.109,6.654,14.273c0.765,7.42-0.985,9.67,1.742,13.101
	c5.334,4.647,7.408-1.082,10.58-3.321c3.083-1.765,2.338-4.813,2.518-7.546l0,0c2.047-3.843,4.614-7.507,6.021-11.571
	c1.988-5.748,3.363-11.611,10.249-13.494c3.854-1.518,6.032-4.865,8.557-7.834c5.412-5.336,7.053-26.664,3.98-29.629
	c-5.214-6.703-18.746-12.301-29.055-16.838c0,0,0,0-0.002,0c-23.787-11.787-46.268-3.555-68.76,4.493
	C75,63.625,45.125,78.5,28.199,150.424c-3.45,14.66-6.824,31.076-4.199,47.201c3,27.625,14.211,42.83,36.25,59.625
	c1.707,1.482,13.25,15.75,72.25,13.938c13.174-0.404,47.125-16.063,66.875-46.813C204.975,216.792,217.045,195.875,198.361,182.865z
	 M133.391,61.592c8.356-0.656,14.106,1.515,17.539,5.779c0.633,1.691-0.305,7.816-2.63,10.682
	c-7.867,8.342-24.841,5.319-26.237,4.26C120.375,77.938,118.916,62.729,133.391,61.592z M34.035,157.402c0-0.004,0-0.006,0-0.012
	c0.005,0.003,0.01,0.006,0.014,0.008C34.045,157.398,34.04,157.401,34.035,157.402z"/>
<path fill-rule="evenodd" clip-rule="evenodd" fill="#FFFFFF" d="M358.063,44.328c-9.166-0.978-18.506-0.516-27.489-1.43
	c-23.314-2.367-45.626,3.492-68.37,5.607c-9.241,0.33-17.706,4.367-25.038,8.676c-10.54,6.193-26.04,22.943-18.348,37.331
	c-0.079,4.423,16.906,15.891,23.438,17.359c12.423,2.796,29.245,2.753,38.62,9.378c5.375,4.75,8.875,12.75,9.594,23.273
	c0,0,0,0,0,0.002c1.576,26.002-4.689,51.239-7.375,76.83c-1.134,10.81-3.76,21.145,4.407,31.811
	c7.333,9.417,11.917,12.25,22.75,10.969c5.75-0.026,42.45-9.04,50.624-11.635c5.5-1.334,9.543-0.701,10.394-7.262
	c0.862-6.7-7.644-8.488-17.331-10.082c-17.969-3.688-20.485-13.858-17.359-30.423c2.922-15.483-2.074-70.231-2.076-70.243
	c0.123-20.615,17.199-28.677,30.393-27.44c3.407,0.318,6.976-1.076,10.469-1.683c0.679,1.414,1.355,2.822,2.029,4.236l0.009,0.044
	c-0.897,13.497,1.237,26.45,6.559,38.933c1.302,3.065,1.998,6.475,6.05,6.455c3.857-0.02,3.923-3.575,4.847-6.191
	c4.269-12.094,3.886-35.334,10.927-51.992c2.338-5.527,3.295-11.576,2.203-17.707C406.375,65.875,396,48.375,358.063,44.328z
	 M366.849,73.938C364.875,88.5,353.75,86,347.252,85.439l-2.94-0.941c-2.312-1.873-8.318-12.83-2.98-20.66
	c2.792-4.086,7.109-4.535,10.652-2.7C357.798,64.163,368.353,62.844,366.849,73.938z"/>
<path fill-rule="evenodd" clip-rule="evenodd" fill="#FFFFFF" d="M538.968,39.098c-6.01-6.056-19.593-13.973-39.343-8.848
	c0,0-34.375,11.125-43.124,29.115c-3.876,10.478-2.238,22.059-2.449,32.753c-0.09,1.376-4.839,53.904-6.063,61.301
	c-2.071,10.581-6.576,34.189-6.938,42.029l-0.002-0.002c-3.291,16.655-6.962,33.251-9.689,49.995
	c-1.102,6.771-1.859,17.309,7.392,29.474c5.128,4.951,14.333,4.084,14.333,4.084c13.289-1.699,19.541-6.124,25.291-32.874
	c0,0,8.658-47.45,10.204-55.35c1.546-7.9,2.503-42.706,3.649-45.49c1.146-2.785,17.253-13.725,26.521-18.41
	c17.725-8.961,29.875-22.875,32.875-31.625C559.25,80.875,565.875,57.875,538.968,39.098z M515.514,79.542
	c-0.263,11.874-10.951,14.646-17.909,11.154c-3.069-2.134-7.354-9.634-7.678-12.796c-1.727-5.411,5.672-10.338,8.244-12.561
	c5.345-4.615,11.588-6.306,17.293-1.717C521.266,68.285,515.646,73.602,515.514,79.542z"/>
<path fill-rule="evenodd" clip-rule="evenodd" fill="#FFFFFF" d="M738.15,226.675c-4.9-6.467-10.521-9.25-13.976-12.938
	c-1.8-2.902,3.491-6.319,4.462-16.163c0.392-3.976-0.58-8.199-6.492-7.159c-5.608,0.369-7.317,4.953-7.318,4.955
	c-0.603,1.186-4.972,13.997-9.134,12.675c-3.294-1.047-1.243-4.084-1.416-6.229c-0.187-2.316-0.127-4.38,1.202-6.708
	c1.641-2.874,1.367-6.991-2.008-8.364c-2.655-1.08-6.398-1.008-8.495,2.596c-2.976,5.117-6.159,10.116-9.255,15.165
	c-5.971,3.415-8.679-0.919-6.929-3.835c1.825-2.366,3.167-3.501,3.504-10.396c0.226-5.249-3.26-8.271-7.089-5.661
	c-4.541,3.083-11.376,5.25-11.382,12.78c-6.955,8.464-14.007,10.385-17.797,4.217c-4.935-8.034-4.05-17.503-3.501-26.399
	c0.339-5.551,8.08-5.385,11.316-5.99c4.396-0.666,8.343-1.814,12.021-4.873c4.159-4.114,1.49-6.707-2.237-8.504
	c-4.472-2.154-9.003-1.654-10.192-2.619c-2.842-5.535,5.563-6.535,9.002-7.598c8.938-1.375,9.229-0.5,7.398-8.16
	c-2.302-9.629-12.492-5.59-15.227-7.793c-4.141-5.063,1.922-8.891,7.984-9.984c5.031-0.625,9.078,1.984,8.963-6.295
	c-0.031-2.225-2.869-4.143-4.112-4.658c-2.793-1.145-5.558-2.365-8.386-3.42c-4.668-1.742-1.91-3.954-0.413-5.23
	c1.729-1.475,6.385-2.334,9.487-3.31c2.595-0.813,5.129-1.477,5.383-5.014c0.227-3.16-1.246-5.14-3.732-6.521
	c-2.056-1.137-4.255-2.025-6.417-2.959c-5.681-2.453-1.491-3.563,0.603-4.281c1.721-0.19,5.781,0.334,7.019-3.87
	c0.746-2.533,0.544-5.005-3.274-5.513c-1.932-0.211-4.186-0.387-5.867-1.66c-2.893-2.397-5.783-4.797-8.675-7.191
	c-2.269-2.005-1.224-5.758-1.413-7.016c-0.425-7.5-8.084-14.893-16.758-17c-7.667-2.416-22.668-0.416-31.834,4.834
	c-13.775,7.89-24.416,21.25-23.334,29.145c2.233,16.295-1.717,32.293-1.094,48.503c0.944,24.526,2.842,49.177-2.162,73.566
	c0.011-0.008,0.024-0.019,0.037-0.027c-1.234,3.577-12.27,32.889-12.594,39.944l0.007,0.011c-0.003-0.005-0.006-0.007-0.009-0.009
	C559.875,259,574.511,266.45,581.5,270.75c5.688,3.164,10.625,6.771,40.401,5.91c20.729-0.6,41.364-3.006,62.042-4.53
	c7.067,2.757,14.618,2.398,21.935,3.542c11.556,1.807,22.148-0.494,27.109-11.068C740.537,248.51,747.5,240.5,738.15,226.675z
	 M622.333,234.416c0,4.084-0.63,4.163-1.093,5.995c-2.746,5.183-10.574,11.589-16.824,6.005c-4.916-3.916-7.914-10.842-3.826-18.19
	c3.761-6.761,9.409-9.758,17.538-8.724c1.422,0.178,2.78-0.492,3.853-1.477c0.087-0.01,0.17-0.02,0.259-0.025
	C620.577,223.483,622.666,228.833,622.333,234.416z"/>
</svg>
